<mxfile host="app.diagrams.net" modified="2023-06-14T11:48:55.971Z" agent="Mozilla/5.0 (Windows NT 10.0; Win64; x64; rv:109.0) Gecko/20100101 Firefox/114.0" etag="FqdgzCysqr3RNkAOQkaa" version="21.3.8" type="github">
  <diagram id="DhiRnUvXFa2sswUN5dy3" name="Page-1">
    <mxGraphModel dx="1434" dy="754" grid="1" gridSize="10" guides="1" tooltips="1" connect="1" arrows="1" fold="1" page="1" pageScale="1" pageWidth="827" pageHeight="1169" math="0" shadow="0">
      <root>
        <mxCell id="0" />
        <mxCell id="1" parent="0" />
        <mxCell id="IjB8PLEvGTR35VX_Fp7d-3" value="" style="rounded=0;orthogonalLoop=1;jettySize=auto;html=1;" parent="1" source="IjB8PLEvGTR35VX_Fp7d-1" target="IjB8PLEvGTR35VX_Fp7d-2" edge="1">
          <mxGeometry relative="1" as="geometry" />
        </mxCell>
        <mxCell id="beUgPeCHPK6Wsav6hTAx-4" value="" style="edgeStyle=orthogonalEdgeStyle;rounded=0;orthogonalLoop=1;jettySize=auto;html=1;" edge="1" parent="1" source="IjB8PLEvGTR35VX_Fp7d-1" target="beUgPeCHPK6Wsav6hTAx-3">
          <mxGeometry relative="1" as="geometry" />
        </mxCell>
        <mxCell id="IjB8PLEvGTR35VX_Fp7d-1" value="Grouplead&lt;br&gt;Tasks" style="rounded=1;whiteSpace=wrap;html=1;fillColor=#FCFCFC;fontColor=#0A0A0A;" parent="1" vertex="1">
          <mxGeometry x="310" y="290" width="120" height="60" as="geometry" />
        </mxCell>
        <mxCell id="IjB8PLEvGTR35VX_Fp7d-2" value="Grouplead&lt;br&gt;Tasks" style="rounded=1;whiteSpace=wrap;html=1;" parent="1" vertex="1">
          <mxGeometry x="490" y="200" width="120" height="60" as="geometry" />
        </mxCell>
        <mxCell id="beUgPeCHPK6Wsav6hTAx-3" value="Grouplead&lt;br&gt;Tasks" style="rounded=1;whiteSpace=wrap;html=1;fillColor=#FCFCFC;fontColor=#0A0A0A;" vertex="1" parent="1">
          <mxGeometry x="310" y="150" width="120" height="60" as="geometry" />
        </mxCell>
      </root>
    </mxGraphModel>
  </diagram>
</mxfile>
